# xmcd CD database file
#
# Track frame offsets:
#	150
#	14833
#	31948
#	44508
#	57621
#	71387
#	88554
#	107442
#	119375
#	135637
#	150171
#	179601
#
# Disc length: 2579 seconds
#
# Revision: 0
# Processed by: cddbd v1.5.2PL0 Copyright (c) Steve Scherf et al.
# Submitted via: CDex 1.70beta2
#
DISCID=9e0a110c
DTITLE=Manu Lanvin - Mauvais Casting
DYEAR=2012
DGENRE=Blues
TTITLE0=Sur la route sixty one
TTITLE1=Don"t beat a woman
TTITLE2=Mauvais casting
TTITLE3=Donne-moi la fièvre
TTITLE4=Laisse-moi respirer
TTITLE5=Tendre est la nuit
TTITLE6=Lil Wihite Man
TTITLE7=Not in the Mood
TTITLE8=Tomorrow
TTITLE9=My good old friend
TTITLE10=Sir AD and Mr A&R (featuring Nemo)
TTITLE11=Mon Amour
EXTD=YEAR: 2012
EXTT0=
EXTT1=
EXTT2=
EXTT3=
EXTT4=
EXTT5=
EXTT6=
EXTT7=
EXTT8=
EXTT9=
EXTT10=
EXTT11=
PLAYORDER=
